<svg width="32" height="32" viewBox="0 0 32 32" fill="none" xmlns="http://www.w3.org/2000/svg">
<path d="M16.5492 27.4832C18.8203 24.5917 24 17.5837 24 13.6474C24 8.8733 20.1927 5 15.5 5C10.8073 5 7 8.8733 7 13.6474C7 17.5837 12.1797 24.5917 14.4508 27.4832C14.9953 28.1723 16.0047 28.1723 16.5492 27.4832ZM15.5 10.7649C16.2514 10.7649 16.9721 11.0686 17.5035 11.6092C18.0348 12.1497 18.3333 12.8829 18.3333 13.6474C18.3333 14.4119 18.0348 15.145 17.5035 15.6856C16.9721 16.2262 16.2514 16.5298 15.5 16.5298C14.7486 16.5298 14.0279 16.2262 13.4965 15.6856C12.9652 15.145 12.6667 14.4119 12.6667 13.6474C12.6667 12.8829 12.9652 12.1497 13.4965 11.6092C14.0279 11.0686 14.7486 10.7649 15.5 10.7649Z" fill="white"/>
</svg>
